<?xml version="1.0" encoding="utf-8"?>
<!-- Generator: Adobe Illustrator 16.0.0, SVG Export Plug-In . SVG Version: 6.00 Build 0)  -->
<!DOCTYPE svg PUBLIC "-//W3C//DTD SVG 1.1//EN" "http://www.w3.org/Graphics/SVG/1.1/DTD/svg11.dtd">
<svg version="1.1" id="Layer_1" xmlns="http://www.w3.org/2000/svg" xmlns:xlink="http://www.w3.org/1999/xlink" x="0px" y="0px"
	 width="48px" height="48px" viewBox="0 0 48 48" enable-background="new 0 0 48 48" xml:space="preserve">
<path fill="#A7CEE8" d="M46,22.02L36,22c-1.1,0-2,0.9-2,2v18c0,1.1,0.9,2,2,2h10c1.1,0,2-0.9,2-2V24C48,22.9,47.1,22.02,46,22.02z
	 M46,40H36V26h10V40z M40,4H4C1.78,4,0,5.78,0,8v24c0,2.2,1.78,4,4,4h14v4h-4v4h16v-4h-4v-4h4v-4H4V8h36v10h4V8C44,5.78,42.2,4,40,4
	z M23.94,18L22,12l-1.94,6H14l4.94,3.52l-1.88,5.82l4.94-3.6l4.939,3.6l-1.879-5.82L30,18H23.94z"/>
</svg>
