<?xml version="1.0" encoding="utf-8"?>
<!-- Generator: Adobe Illustrator 16.0.0, SVG Export Plug-In . SVG Version: 6.00 Build 0)  -->
<!DOCTYPE svg PUBLIC "-//W3C//DTD SVG 1.1//EN" "http://www.w3.org/Graphics/SVG/1.1/DTD/svg11.dtd">
<svg version="1.1" id="Layer_1" xmlns="http://www.w3.org/2000/svg" xmlns:xlink="http://www.w3.org/1999/xlink" x="0px" y="0px"
	 width="321.979px" height="166.814px" viewBox="0 0 321.979 166.814" enable-background="new 0 0 321.979 166.814"
	 xml:space="preserve">
<g>
	<g>
		<path fill="#FFFFFF" d="M119.852,41.961c1.75,1.464,2.627,3.721,2.627,6.768c0,3.049-0.895,5.28-2.682,6.696
			c-1.789,1.417-4.531,2.124-8.227,2.124h-4.464v7.38h-4.248V39.765h8.64C115.315,39.765,118.098,40.497,119.852,41.961z
			 M116.844,52.347c0.854-0.899,1.279-2.22,1.279-3.96s-0.541-2.971-1.621-3.689c-1.08-0.721-2.771-1.08-5.076-1.08h-4.319v10.08
			h4.932C114.391,53.697,115.993,53.246,116.844,52.347z"/>
		<path fill="#FFFFFF" d="M147.379,39.765v3.996h-13.428v6.66h12.061v3.78h-12.061v6.731h13.859v3.996h-18.107V39.765H147.379z"/>
		<path fill="#FFFFFF" d="M160.127,59.205l-2.52,5.724h-4.537l11.088-25.164h4.537l11.088,25.164h-4.537l-2.52-5.724H160.127z
			 M170.998,55.281l-4.57-10.369l-4.572,10.369H170.998z"/>
		<path fill="#FFFFFF" d="M196.09,61.076c1.465,0,2.725-0.245,3.781-0.737c1.055-0.491,2.16-1.278,3.312-2.358l2.734,2.809
			c-2.664,2.951-5.898,4.428-9.701,4.428c-3.805,0-6.961-1.225-9.469-3.672c-2.508-2.448-3.762-5.545-3.762-9.288
			c0-3.744,1.277-6.864,3.834-9.36c2.555-2.496,5.783-3.744,9.684-3.744s7.158,1.44,9.775,4.32l-2.701,2.952
			c-1.199-1.151-2.334-1.956-3.402-2.412c-1.066-0.456-2.32-0.685-3.762-0.685c-2.543,0-4.68,0.822-6.408,2.467
			s-2.592,3.744-2.592,6.3s0.857,4.692,2.574,6.408S193.738,61.076,196.09,61.076z"/>
		<path fill="#FFFFFF" d="M213.047,64.929V39.765h4.248v10.908h12.492V39.765h4.248v25.164h-4.248V54.633h-12.492v10.296H213.047z"
			/>
	</g>
	<rect x="25.542" y="46.928" fill="#FFFFFF" width="16" height="18"/>
	<rect x="45.792" y="25.498" fill="#FFFFFF" width="16" height="39.43"/>
	<rect x="66.042" y="39.998" fill="#FFFFFF" width="16" height="24.93"/>
</g>
<g>
	<path fill="#FFFFFF" d="M49.507,98.079v42.552h-8.496V98.079H25.747v-7.776h39.023v7.776H49.507z"/>
	<path fill="#FFFFFF" d="M117.762,106.646c0,8.305-3.625,13.536-10.872,15.696l13.176,18.288h-10.8l-12.024-16.92H86.082v16.92
		h-8.496V90.303h18.72c7.679,0,13.176,1.296,16.488,3.888C116.105,96.782,117.762,100.935,117.762,106.646z M106.458,113.774
		c1.728-1.487,2.592-3.875,2.592-7.164c0-3.287-0.889-5.544-2.664-6.768c-1.776-1.225-4.944-1.836-9.504-1.836h-10.8v18h10.584
		C101.465,116.007,104.729,115.263,106.458,113.774z"/>
	<path fill="#FFFFFF" d="M133.602,90.303h8.496v50.328h-8.496V90.303z"/>
	<path fill="#FFFFFF" d="M166.794,129.183l-5.04,11.448h-9.072l22.176-50.328h9.072l22.176,50.328h-9.072l-5.04-11.448H166.794z
		 M188.538,121.335l-9.145-20.736l-9.144,20.736H188.538z"/>
	<path fill="#FFFFFF" d="M216.688,140.631V90.303h8.496v42.264h22.968v8.064H216.688z"/>
	<path fill="#FFFFFF" d="M276.268,96.927c-2.473,0-4.5,0.504-6.084,1.512s-2.376,2.532-2.376,4.572c0,2.041,0.792,3.6,2.376,4.68
		s4.956,2.244,10.116,3.492c5.159,1.249,9.047,3,11.664,5.256c2.615,2.257,3.924,5.58,3.924,9.972c0,4.393-1.656,7.956-4.968,10.692
		c-3.312,2.736-7.657,4.104-13.032,4.104c-7.873,0-14.856-2.712-20.952-8.137l5.328-6.407c5.087,4.416,10.368,6.623,15.84,6.623
		c2.736,0,4.907-0.587,6.517-1.764c1.607-1.176,2.411-2.736,2.411-4.68c0-1.944-0.756-3.456-2.268-4.536s-4.116-2.063-7.812-2.952
		c-3.697-0.888-6.505-1.703-8.425-2.448c-1.92-0.743-3.624-1.715-5.111-2.916c-2.978-2.255-4.464-5.711-4.464-10.367
		c0-4.655,1.691-8.244,5.075-10.765c3.385-2.52,7.571-3.779,12.564-3.779c3.215,0,6.408,0.528,9.576,1.584s5.903,2.544,8.208,4.464
		l-4.536,6.407c-1.488-1.343-3.505-2.447-6.048-3.312C281.247,97.358,278.739,96.927,276.268,96.927z"/>
</g>
</svg>
