<?xml version="1.0" encoding="utf-8"?>
<!-- Generator: Adobe Illustrator 16.0.0, SVG Export Plug-In . SVG Version: 6.00 Build 0)  -->
<!DOCTYPE svg PUBLIC "-//W3C//DTD SVG 1.1//EN" "http://www.w3.org/Graphics/SVG/1.1/DTD/svg11.dtd">
<svg version="1.1" id="Layer_1" xmlns="http://www.w3.org/2000/svg" xmlns:xlink="http://www.w3.org/1999/xlink" x="0px" y="0px"
	 width="601.978px" height="166.814px" viewBox="0 0 601.978 166.814" enable-background="new 0 0 601.978 166.814"
	 xml:space="preserve">
<g>
	<g>
		<path d="M119.852,41.961c1.75,1.464,2.627,3.721,2.627,6.768c0,3.049-0.895,5.28-2.682,6.696
			c-1.789,1.417-4.531,2.124-8.227,2.124h-4.464v7.38h-4.248V39.765h8.64C115.315,39.765,118.098,40.497,119.852,41.961z
			 M116.844,52.347c0.854-0.899,1.279-2.22,1.279-3.96s-0.541-2.971-1.621-3.689c-1.08-0.721-2.771-1.08-5.076-1.08h-4.319v10.08
			h4.932C114.391,53.697,115.993,53.246,116.844,52.347z"/>
		<path d="M147.379,39.765v3.996h-13.428v6.66h12.061v3.78h-12.061v6.731h13.859v3.996h-18.107V39.765H147.379z"/>
		<path d="M160.127,59.205l-2.52,5.724h-4.537l11.088-25.164h4.537l11.088,25.164h-4.537l-2.52-5.724H160.127z M170.999,55.281
			l-4.57-10.369l-4.572,10.369H170.999z"/>
		<path d="M196.089,61.076c1.465,0,2.725-0.245,3.781-0.737c1.055-0.491,2.16-1.278,3.312-2.358l2.734,2.809
			c-2.664,2.951-5.898,4.428-9.701,4.428c-3.805,0-6.96-1.225-9.468-3.672c-2.508-2.448-3.762-5.545-3.762-9.288
			c0-3.744,1.277-6.864,3.834-9.36c2.555-2.496,5.782-3.744,9.683-3.744s7.158,1.44,9.775,4.32l-2.701,2.952
			c-1.199-1.151-2.334-1.956-3.402-2.412c-1.066-0.456-2.32-0.685-3.762-0.685c-2.543,0-4.68,0.822-6.407,2.467
			c-1.729,1.645-2.592,3.744-2.592,6.3s0.857,4.692,2.574,6.408C191.705,60.219,193.738,61.076,196.089,61.076z"/>
		<path d="M213.046,64.929V39.765h4.248v10.908h12.492V39.765h4.248v25.164h-4.248V54.633h-12.492v10.296H213.046z"/>
	</g>
	<rect x="25.542" y="46.928" width="16" height="18"/>
	<rect x="45.792" y="25.498" width="16" height="39.43"/>
	<rect x="66.042" y="39.998" width="16" height="24.93"/>
</g>
<g>
	<path d="M63.588,96.89c4.848,4.392,7.271,10.501,7.271,18.324c0,7.824-2.353,14.017-7.056,18.576
		c-4.705,4.561-11.905,6.84-21.6,6.84H25.5V90.302H42.78C51.804,90.302,58.74,92.499,63.588,96.89z M62.292,115.43
		c0-11.521-6.601-17.28-19.801-17.28h-8.495v34.488h9.432c6.095,0,10.764-1.451,14.004-4.356
		C60.672,125.378,62.292,121.094,62.292,115.43z"/>
	<path d="M92.533,129.182l-5.04,11.448H78.42l22.176-50.328h9.072l22.176,50.328h-9.072l-5.04-11.448H92.533z M114.277,121.334
		l-9.145-20.736l-9.144,20.736H114.277z"/>
	<path d="M157.655,96.926c-2.473,0-4.5,0.504-6.084,1.512s-2.376,2.532-2.376,4.572c0,2.041,0.792,3.6,2.376,4.68
		s4.956,2.244,10.116,3.492c5.159,1.249,9.047,3,11.664,5.256c2.615,2.257,3.924,5.58,3.924,9.972c0,4.393-1.656,7.956-4.968,10.692
		c-3.312,2.736-7.657,4.104-13.032,4.104c-7.873,0-14.856-2.712-20.952-8.137l5.328-6.407c5.087,4.416,10.368,6.623,15.84,6.623
		c2.736,0,4.907-0.587,6.517-1.764c1.607-1.176,2.411-2.736,2.411-4.68c0-1.944-0.756-3.456-2.268-4.536s-4.116-2.063-7.812-2.952
		c-3.697-0.888-6.505-1.703-8.425-2.448c-1.92-0.743-3.624-1.715-5.111-2.916c-2.978-2.255-4.464-5.711-4.464-10.367
		c0-4.655,1.691-8.244,5.075-10.765c3.385-2.52,7.571-3.779,12.564-3.779c3.215,0,6.408,0.528,9.576,1.584s5.903,2.544,8.208,4.464
		l-4.536,6.407c-1.488-1.343-3.505-2.447-6.048-3.312C162.634,97.358,160.126,96.926,157.655,96.926z"/>
	<path d="M191.387,140.63V90.302h8.496v21.815h24.983V90.302h8.496v50.328h-8.496v-20.592h-24.983v20.592H191.387z"/>
	<path d="M272.961,140.63H250.93V90.302h19.584c3.407,0,6.347,0.408,8.819,1.224c2.472,0.817,4.308,1.921,5.509,3.312
		c2.304,2.592,3.455,5.521,3.455,8.784c0,3.936-1.248,6.864-3.743,8.783c-0.913,0.673-1.537,1.093-1.872,1.261
		c-0.337,0.168-0.937,0.444-1.801,0.827c3.12,0.673,5.604,2.077,7.452,4.213s2.772,4.787,2.772,7.956c0,3.504-1.2,6.6-3.601,9.287
		C284.673,139.071,279.826,140.63,272.961,140.63z M259.426,111.182h10.8c6.144,0,9.216-2.088,9.216-6.264
		c0-2.4-0.745-4.128-2.232-5.185c-1.488-1.055-3.792-1.584-6.912-1.584h-10.871V111.182z M259.426,132.782h13.319
		c3.12,0,5.508-0.491,7.164-1.476c1.656-0.983,2.484-2.844,2.484-5.58c0-4.464-3.576-6.696-10.729-6.696h-12.239V132.782z"/>
	<path d="M347.481,133.682c-5.088,4.968-11.376,7.452-18.863,7.452c-7.488,0-13.777-2.484-18.864-7.452
		c-5.088-4.968-7.632-11.16-7.632-18.576s2.544-13.607,7.632-18.576c5.087-4.968,11.376-7.451,18.864-7.451
		c7.487,0,13.775,2.483,18.863,7.451c5.088,4.969,7.633,11.16,7.633,18.576S352.569,128.714,347.481,133.682z M341.253,102.182
		c-3.433-3.552-7.645-5.328-12.636-5.328c-4.993,0-9.205,1.776-12.637,5.328c-3.432,3.553-5.147,7.86-5.147,12.924
		c0,5.064,1.716,9.372,5.147,12.924c3.432,3.553,7.644,5.328,12.637,5.328c4.991,0,9.203-1.775,12.636-5.328
		c3.432-3.552,5.148-7.859,5.148-12.924C346.402,110.042,344.685,105.735,341.253,102.182z"/>
	<path d="M375.274,129.182l-5.04,11.448h-9.072l22.176-50.328h9.072l22.176,50.328h-9.072l-5.04-11.448H375.274z M397.018,121.334
		l-9.145-20.736l-9.144,20.736H397.018z"/>
	<path d="M465.345,106.646c0,8.305-3.625,13.536-10.872,15.696l13.176,18.288h-10.8l-12.024-16.92h-11.159v16.92h-8.496V90.302
		h18.72c7.679,0,13.176,1.296,16.488,3.888C463.689,96.782,465.345,100.934,465.345,106.646z M454.042,113.774
		c1.728-1.487,2.592-3.875,2.592-7.164c0-3.287-0.889-5.544-2.664-6.768c-1.776-1.225-4.944-1.836-9.504-1.836h-10.8v18h10.584
		C449.048,116.006,452.313,115.262,454.042,113.774z"/>
	<path d="M519.273,96.89c4.848,4.392,7.271,10.501,7.271,18.324c0,7.824-2.353,14.017-7.056,18.576
		c-4.705,4.561-11.905,6.84-21.6,6.84h-16.704V90.302h17.279C507.489,90.302,514.424,92.499,519.273,96.89z M517.977,115.43
		c0-11.521-6.601-17.28-19.801-17.28h-8.495v34.488h9.432c6.095,0,10.764-1.451,14.004-4.356
		C516.357,125.378,517.977,121.094,517.977,115.43z"/>
	<path d="M556.317,96.926c-2.473,0-4.5,0.504-6.084,1.512s-2.376,2.532-2.376,4.572c0,2.041,0.792,3.6,2.376,4.68
		s4.956,2.244,10.116,3.492c5.159,1.249,9.047,3,11.664,5.256c2.615,2.257,3.924,5.58,3.924,9.972c0,4.393-1.656,7.956-4.968,10.692
		c-3.312,2.736-7.657,4.104-13.032,4.104c-7.873,0-14.856-2.712-20.952-8.137l5.328-6.407c5.087,4.416,10.368,6.623,15.84,6.623
		c2.736,0,4.907-0.587,6.517-1.764c1.607-1.176,2.411-2.736,2.411-4.68c0-1.944-0.756-3.456-2.268-4.536s-4.116-2.063-7.812-2.952
		c-3.697-0.888-6.505-1.703-8.425-2.448c-1.92-0.743-3.624-1.715-5.111-2.916c-2.978-2.255-4.464-5.711-4.464-10.367
		c0-4.655,1.691-8.244,5.075-10.765c3.385-2.52,7.571-3.779,12.564-3.779c3.215,0,6.408,0.528,9.576,1.584s5.903,2.544,8.208,4.464
		l-4.536,6.407c-1.488-1.343-3.505-2.447-6.048-3.312C561.296,97.358,558.789,96.926,556.317,96.926z"/>
</g>
</svg>
