<?xml version="1.0" encoding="utf-8"?>
<!-- Generator: Adobe Illustrator 16.0.0, SVG Export Plug-In . SVG Version: 6.00 Build 0)  -->
<!DOCTYPE svg PUBLIC "-//W3C//DTD SVG 1.1//EN" "http://www.w3.org/Graphics/SVG/1.1/DTD/svg11.dtd">
<svg version="1.1" id="Layer_1" xmlns="http://www.w3.org/2000/svg" xmlns:xlink="http://www.w3.org/1999/xlink" x="0px" y="0px"
	 width="381.104px" height="166.896px" viewBox="504.792 57.44 381.104 166.896"
	 enable-background="new 504.792 57.44 381.104 166.896" xml:space="preserve">
<g>
	<rect x="504.792" y="57.44" fill="#142F4C" width="381.104" height="166.896"/>
	<g>
		<g>
			<path fill="#FFFFFF" d="M624.847,98.639c1.75,1.463,2.627,3.72,2.627,6.768s-0.895,5.279-2.682,6.695
				c-1.789,1.417-4.529,2.125-8.225,2.125h-4.466v7.379h-4.248V96.441h8.642C620.311,96.441,623.093,97.174,624.847,98.639z
				 M621.839,109.023c0.854-0.899,1.279-2.219,1.279-3.959s-0.541-2.972-1.621-3.69s-2.771-1.08-5.074-1.08h-4.319v10.08h4.932
				C619.386,110.374,620.988,109.924,621.839,109.023z"/>
			<path fill="#FFFFFF" d="M652.376,96.441v3.996h-13.428v6.66h12.059v3.779h-12.059v6.731h13.858v3.996H634.7V96.441H652.376z"/>
			<path fill="#FFFFFF" d="M665.123,115.882l-2.52,5.725h-4.535l11.088-25.164h4.535l11.088,25.164h-4.535l-2.521-5.725H665.123z
				 M675.996,111.958l-4.572-10.368l-4.572,10.368H675.996z"/>
			<path fill="#FFFFFF" d="M701.085,117.754c1.465,0,2.726-0.246,3.781-0.737c1.055-0.491,2.16-1.277,3.312-2.357l2.734,2.808
				c-2.664,2.952-5.898,4.43-9.701,4.43c-3.805,0-6.961-1.226-9.469-3.672c-2.508-2.449-3.762-5.545-3.762-9.289
				s1.278-6.863,3.834-9.359c2.557-2.496,5.782-3.744,9.684-3.744s7.158,1.439,9.775,4.32l-2.701,2.951
				c-1.199-1.151-2.334-1.955-3.402-2.412c-1.065-0.455-2.32-0.685-3.762-0.685c-2.543,0-4.68,0.822-6.408,2.468
				c-1.727,1.644-2.592,3.742-2.592,6.299s0.859,4.692,2.574,6.408C696.701,116.896,698.734,117.754,701.085,117.754z"/>
			<path fill="#FFFFFF" d="M718.042,121.605V96.441h4.248v10.908h12.492V96.441h4.248v25.164h-4.248V111.31H722.29v10.295H718.042z"
				/>
		</g>
		<rect x="530.539" y="103.604" fill="#FFFFFF" width="16" height="18.001"/>
		<rect x="550.789" y="82.174" fill="#FFFFFF" width="16" height="39.432"/>
		<rect x="571.039" y="96.674" fill="#FFFFFF" width="16" height="24.933"/>
	</g>
	<g>
		<path fill="#FFFFFF" d="M556.259,190.366c2.929,0,5.447-0.491,7.562-1.476c2.11-0.983,4.319-2.557,6.623-4.717l5.473,5.616
			c-5.328,5.903-11.797,8.855-19.404,8.855c-7.606,0-13.92-2.448-18.936-7.345c-5.016-4.896-7.523-11.088-7.523-18.575
			c0-7.488,2.555-13.729,7.668-18.721c5.111-4.991,11.566-7.487,19.367-7.487s14.316,2.88,19.549,8.64l-5.399,5.904
			c-2.4-2.305-4.67-3.911-6.806-4.824c-2.137-0.911-4.643-1.368-7.522-1.368c-5.088,0-9.359,1.646-12.816,4.933
			c-3.455,3.288-5.184,7.488-5.184,12.601s1.715,9.385,5.147,12.815C547.488,188.651,551.554,190.366,556.259,190.366z"/>
		<path fill="#FFFFFF" d="M597.011,186.622l-5.039,11.448H582.9l22.176-50.328h9.072l22.176,50.328h-9.072l-5.041-11.448H597.011z
			 M618.755,178.774l-9.145-20.736l-9.144,20.736H618.755z"/>
		<path fill="#FFFFFF" d="M684.634,147.742h8.496v50.328h-9.217L655.4,161.35v36.72h-8.495v-50.328h8.495l29.232,37.584
			L684.634,147.742L684.634,147.742z"/>
		<path fill="#FFFFFF" d="M733.666,190.366c2.927,0,5.447-0.491,7.561-1.476c2.111-0.983,4.319-2.557,6.623-4.717l5.474,5.616
			c-5.328,5.903-11.797,8.855-19.404,8.855c-7.608,0-13.921-2.448-18.936-7.345c-5.017-4.896-7.523-11.088-7.523-18.575
			c0-7.488,2.556-13.729,7.668-18.721c5.111-4.991,11.566-7.487,19.367-7.487c7.8,0,14.315,2.88,19.548,8.64l-5.4,5.904
			c-2.399-2.305-4.668-3.911-6.804-4.824c-2.137-0.911-4.644-1.368-7.523-1.368c-5.089,0-9.359,1.646-12.815,4.933
			c-3.456,3.288-5.184,7.488-5.184,12.601s1.715,9.385,5.146,12.815C724.893,188.651,728.96,190.366,733.666,190.366z"/>
		<path fill="#FFFFFF" d="M802.641,147.742v7.992h-26.854v13.32h24.119v7.56h-24.119v13.464h27.72v7.992H767.29v-50.328H802.641z"/>
		<path fill="#FFFFFF" d="M858.153,164.087c0,8.306-3.625,13.535-10.872,15.695l13.176,18.288h-10.8l-12.024-16.92h-11.158v16.92
			h-8.496v-50.328h18.72c7.679,0,13.176,1.296,16.487,3.889S858.153,158.375,858.153,164.087z M846.849,171.215
			c1.729-1.486,2.593-3.876,2.593-7.164c0-3.286-0.89-5.544-2.664-6.769c-1.776-1.224-4.944-1.836-9.504-1.836h-10.801v18h10.584
			C841.855,173.446,845.121,172.703,846.849,171.215z"/>
	</g>
</g>
</svg>
