<?xml version="1.0" encoding="utf-8"?>
<!-- Generator: Adobe Illustrator 16.0.0, SVG Export Plug-In . SVG Version: 6.00 Build 0)  -->
<!DOCTYPE svg PUBLIC "-//W3C//DTD SVG 1.1//EN" "http://www.w3.org/Graphics/SVG/1.1/DTD/svg11.dtd">
<svg version="1.1" id="Layer_1" xmlns="http://www.w3.org/2000/svg" xmlns:xlink="http://www.w3.org/1999/xlink" x="0px" y="0px"
	 width="370.979px" height="166.814px" viewBox="0 0 370.979 166.814" enable-background="new 0 0 370.979 166.814"
	 xml:space="preserve">
<g>
	<g>
		<path fill="#FFFFFF" d="M119.852,41.961c1.75,1.464,2.627,3.721,2.627,6.768c0,3.049-0.895,5.28-2.682,6.696
			c-1.789,1.417-4.531,2.124-8.227,2.124h-4.464v7.38h-4.248V39.765h8.64C115.315,39.765,118.098,40.497,119.852,41.961z
			 M116.844,52.347c0.854-0.899,1.279-2.22,1.279-3.96s-0.541-2.971-1.621-3.689c-1.08-0.721-2.771-1.08-5.076-1.08h-4.319v10.08
			h4.932C114.391,53.697,115.993,53.246,116.844,52.347z"/>
		<path fill="#FFFFFF" d="M147.379,39.765v3.996h-13.428v6.66h12.061v3.78h-12.061v6.731h13.859v3.996h-18.107V39.765H147.379z"/>
		<path fill="#FFFFFF" d="M160.127,59.205l-2.52,5.724h-4.537l11.088-25.164h4.537l11.088,25.164h-4.537l-2.52-5.724H160.127z
			 M170.999,55.281l-4.57-10.369l-4.572,10.369H170.999z"/>
		<path fill="#FFFFFF" d="M196.09,61.076c1.465,0,2.725-0.245,3.781-0.737c1.055-0.491,2.16-1.278,3.312-2.358l2.734,2.809
			c-2.664,2.951-5.898,4.428-9.701,4.428c-3.805,0-6.96-1.225-9.468-3.672c-2.508-2.448-3.762-5.545-3.762-9.288
			c0-3.744,1.277-6.864,3.834-9.36c2.555-2.496,5.783-3.744,9.683-3.744s7.158,1.44,9.775,4.32l-2.701,2.952
			c-1.199-1.151-2.334-1.956-3.402-2.412c-1.066-0.456-2.32-0.685-3.762-0.685c-2.543,0-4.68,0.822-6.408,2.467
			c-1.728,1.645-2.591,3.744-2.591,6.3s0.857,4.692,2.574,6.408C191.705,60.219,193.738,61.076,196.09,61.076z"/>
		<path fill="#FFFFFF" d="M213.047,64.929V39.765h4.248v10.908h12.492V39.765h4.248v25.164h-4.248V54.633h-12.492v10.296H213.047z"
			/>
	</g>
	<rect x="25.542" y="46.928" fill="#FFFFFF" width="16" height="18"/>
	<rect x="45.792" y="25.498" fill="#FFFFFF" width="16" height="39.43"/>
	<rect x="66.042" y="39.998" fill="#FFFFFF" width="16" height="24.93"/>
</g>
<g>
	<path fill="#FFFFFF" d="M65.676,106.647c0,8.305-3.625,13.535-10.872,15.695l13.176,18.288h-10.8l-12.024-16.92H33.996v16.92H25.5
		V90.303h18.72c7.679,0,13.176,1.296,16.488,3.889C64.02,96.783,65.676,100.936,65.676,106.647z M54.372,113.775
		c1.728-1.487,2.592-3.876,2.592-7.164c0-3.287-0.889-5.544-2.664-6.769c-1.776-1.224-4.944-1.836-9.504-1.836h-10.8v18H44.58
		C49.379,116.007,52.644,115.264,54.372,113.775z"/>
	<path fill="#FFFFFF" d="M116.867,90.303v7.992H90.012v13.32h24.119v7.56H90.012v13.464h27.72v7.992H81.516V90.303H116.867z"/>
	<path fill="#FFFFFF" d="M139.331,129.183l-5.04,11.448h-9.072l22.176-50.328h9.072l22.176,50.328h-9.072l-5.04-11.448H139.331z
		 M161.075,121.335l-9.145-20.736l-9.144,20.736H161.075z"/>
	<path fill="#FFFFFF" d="M189.227,140.631V90.303h8.496v42.265h22.968v8.063H189.227z"/>
	<path fill="#FFFFFF" d="M233.578,90.303h8.496v50.328h-8.496V90.303z"/>
	<path fill="#FFFFFF" d="M278.649,98.079v42.552h-8.496V98.079H254.89v-7.776h39.023v7.776H278.649z"/>
	<path fill="#FFFFFF" d="M326.528,140.631h-8.641v-19.872l-18.72-30.456h9.288l13.752,22.896l13.752-22.896h9.288l-18.72,30.456
		V140.631z"/>
</g>
</svg>
