<?xml version="1.0" encoding="utf-8"?>
<!-- Generator: Adobe Illustrator 16.0.0, SVG Export Plug-In . SVG Version: 6.00 Build 0)  -->
<!DOCTYPE svg PUBLIC "-//W3C//DTD SVG 1.1//EN" "http://www.w3.org/Graphics/SVG/1.1/DTD/svg11.dtd">
<svg version="1.1" id="Layer_1" xmlns="http://www.w3.org/2000/svg" xmlns:xlink="http://www.w3.org/1999/xlink" x="0px" y="0px"
	 width="706px" height="190px" viewBox="0 0 706 190" enable-background="new 0 0 706 190" xml:space="preserve">
<rect x="58.25" y="44.25" fill="none" stroke="#000000" stroke-width="0.9616" stroke-miterlimit="10" width="258.417" height="90.25"/>
<g>
	<g>
		<path d="M177.61,86.21c1.75,1.464,2.627,3.72,2.627,6.768c0,3.048-0.895,5.28-2.682,6.696c-1.789,1.417-4.531,2.124-8.226,2.124
			h-4.464v7.38h-4.248V84.014h8.64C173.073,84.014,175.856,84.747,177.61,86.21z M174.602,96.596c0.854-0.9,1.279-2.22,1.279-3.96
			c0-1.74-0.541-2.97-1.621-3.69c-1.08-0.72-2.771-1.08-5.075-1.08h-4.32v10.08h4.932C172.149,97.946,173.75,97.496,174.602,96.596z
			"/>
		<path d="M205.138,84.014v3.996H191.71v6.66h12.06v3.78h-12.06v6.732h13.859v3.996h-18.107V84.014H205.138z"/>
		<path d="M217.885,103.454l-2.52,5.724h-4.536l11.088-25.164h4.536l11.088,25.164h-4.536l-2.52-5.724H217.885z M228.757,99.53
			l-4.571-10.368l-4.572,10.368H228.757z"/>
		<path d="M253.848,105.326c1.464,0,2.724-0.246,3.78-0.738c1.056-0.492,2.16-1.278,3.312-2.358l2.735,2.808
			c-2.664,2.952-5.898,4.428-9.702,4.428s-6.96-1.224-9.468-3.672c-2.508-2.448-3.762-5.544-3.762-9.288
			c0-3.744,1.278-6.864,3.834-9.36c2.556-2.496,5.783-3.744,9.684-3.744s7.158,1.44,9.774,4.32l-2.7,2.952
			c-1.2-1.152-2.334-1.956-3.402-2.412c-1.067-0.456-2.321-0.684-3.762-0.684c-2.544,0-4.68,0.822-6.408,2.466
			c-1.728,1.644-2.592,3.744-2.592,6.3s0.858,4.692,2.574,6.408S251.497,105.326,253.848,105.326z"/>
		<path d="M270.804,109.178V84.014h4.248v10.908h12.492V84.014h4.248v25.164h-4.248V98.882h-12.492v10.296H270.804z"/>
	</g>
	<rect x="83.301" y="91.177" width="16" height="18"/>
	<rect x="103.551" y="69.747" width="16" height="39.43"/>
	<rect x="123.801" y="84.247" width="16" height="24.93"/>
</g>
<g>
	<g>
		<g>
			<g>
				<g>
					<rect x="58.25" y="69.315" fill="#878787" width="2.253" height="0.888"/>
					<rect x="61.606" y="69.315" fill="#878787" width="2.253" height="0.888"/>
					<rect x="64.962" y="69.315" fill="#878787" width="2.253" height="0.888"/>
					<rect x="68.318" y="69.315" fill="#878787" width="2.253" height="0.888"/>
					<rect x="71.674" y="69.315" fill="#878787" width="2.253" height="0.888"/>
					<rect x="75.031" y="69.315" fill="#878787" width="2.253" height="0.888"/>
					<rect x="78.386" y="69.315" fill="#878787" width="2.253" height="0.888"/>
				</g>
			</g>
			<g>
				<g>
					<rect x="81.743" y="69.315" fill="#878787" width="2.253" height="0.888"/>
					<rect x="85.099" y="69.315" fill="#878787" width="2.253" height="0.888"/>
					<rect x="88.454" y="69.315" fill="#878787" width="2.253" height="0.888"/>
					<rect x="91.811" y="69.315" fill="#878787" width="2.253" height="0.888"/>
					<rect x="95.167" y="69.315" fill="#878787" width="2.253" height="0.888"/>
					<rect x="98.523" y="69.315" fill="#878787" width="2.253" height="0.888"/>
					<rect x="101.879" y="69.315" fill="#878787" width="2.253" height="0.888"/>
				</g>
			</g>
			<g>
				<g>
					<rect x="105.235" y="69.315" fill="#878787" width="2.253" height="0.888"/>
					<rect x="108.591" y="69.315" fill="#878787" width="2.253" height="0.888"/>
					<rect x="111.947" y="69.315" fill="#878787" width="2.253" height="0.888"/>
					<rect x="115.303" y="69.315" fill="#878787" width="2.253" height="0.888"/>
					<rect x="118.659" y="69.315" fill="#878787" width="2.253" height="0.888"/>
					<rect x="122.016" y="69.315" fill="#878787" width="2.253" height="0.888"/>
					<rect x="125.371" y="69.315" fill="#878787" width="2.253" height="0.888"/>
				</g>
			</g>
			<g>
				<g>
					<rect x="128.728" y="69.315" fill="#878787" width="2.253" height="0.888"/>
					<rect x="132.083" y="69.315" fill="#878787" width="2.253" height="0.888"/>
					<rect x="135.439" y="69.315" fill="#878787" width="2.253" height="0.888"/>
					<rect x="138.796" y="69.315" fill="#878787" width="2.253" height="0.888"/>
					<rect x="142.151" y="69.315" fill="#878787" width="2.253" height="0.888"/>
					<rect x="145.508" y="69.315" fill="#878787" width="2.253" height="0.888"/>
					<rect x="148.864" y="69.315" fill="#878787" width="2.253" height="0.888"/>
				</g>
			</g>
			<g>
				<g>
					<rect x="152.22" y="69.315" fill="#878787" width="2.253" height="0.888"/>
					<rect x="155.576" y="69.315" fill="#878787" width="2.253" height="0.888"/>
					<rect x="158.932" y="69.315" fill="#878787" width="2.253" height="0.888"/>
					<rect x="162.288" y="69.315" fill="#878787" width="2.253" height="0.888"/>
					<rect x="165.644" y="69.315" fill="#878787" width="2.254" height="0.888"/>
					<rect x="169" y="69.315" fill="#878787" width="2.253" height="0.888"/>
					<rect x="172.356" y="69.315" fill="#878787" width="2.253" height="0.888"/>
				</g>
			</g>
			<g>
				<g>
					<rect x="175.712" y="69.315" fill="#878787" width="2.253" height="0.888"/>
					<rect x="179.068" y="69.315" fill="#878787" width="2.253" height="0.888"/>
					<rect x="182.424" y="69.315" fill="#878787" width="2.254" height="0.888"/>
					<rect x="185.781" y="69.315" fill="#878787" width="2.253" height="0.888"/>
					<rect x="189.136" y="69.315" fill="#878787" width="2.253" height="0.888"/>
					<rect x="192.493" y="69.315" fill="#878787" width="2.253" height="0.888"/>
					<rect x="195.849" y="69.315" fill="#878787" width="2.253" height="0.888"/>
				</g>
			</g>
			<g>
				<g>
					<rect x="199.205" y="69.315" fill="#878787" width="2.253" height="0.888"/>
					<rect x="202.561" y="69.315" fill="#878787" width="2.253" height="0.888"/>
					<rect x="205.917" y="69.315" fill="#878787" width="2.253" height="0.888"/>
					<rect x="209.273" y="69.315" fill="#878787" width="2.253" height="0.888"/>
					<rect x="212.629" y="69.315" fill="#878787" width="2.253" height="0.888"/>
					<rect x="215.985" y="69.315" fill="#878787" width="2.253" height="0.888"/>
					<rect x="219.341" y="69.315" fill="#878787" width="2.253" height="0.888"/>
				</g>
			</g>
			<g>
				<g>
					<rect x="222.697" y="69.315" fill="#878787" width="2.253" height="0.888"/>
					<rect x="226.053" y="69.315" fill="#878787" width="2.253" height="0.888"/>
					<rect x="229.409" y="69.315" fill="#878787" width="2.253" height="0.888"/>
					<rect x="232.766" y="69.315" fill="#878787" width="2.253" height="0.888"/>
					<rect x="236.121" y="69.315" fill="#878787" width="2.253" height="0.888"/>
					<rect x="239.478" y="69.315" fill="#878787" width="2.253" height="0.888"/>
					<rect x="242.833" y="69.315" fill="#878787" width="2.253" height="0.888"/>
				</g>
			</g>
			<g>
				<g>
					<rect x="246.189" y="69.315" fill="#878787" width="2.254" height="0.888"/>
					<rect x="249.545" y="69.315" fill="#878787" width="2.254" height="0.888"/>
					<rect x="252.901" y="69.315" fill="#878787" width="2.253" height="0.888"/>
					<rect x="256.258" y="69.315" fill="#878787" width="2.253" height="0.888"/>
					<rect x="259.614" y="69.315" fill="#878787" width="2.253" height="0.888"/>
					<rect x="262.97" y="69.315" fill="#878787" width="2.253" height="0.888"/>
					<rect x="266.326" y="69.315" fill="#878787" width="2.253" height="0.888"/>
				</g>
			</g>
			<g>
				<g>
					<rect x="269.682" y="69.315" fill="#878787" width="2.253" height="0.888"/>
					<rect x="273.038" y="69.315" fill="#878787" width="2.253" height="0.888"/>
					<rect x="276.394" y="69.315" fill="#878787" width="2.253" height="0.888"/>
					<rect x="279.75" y="69.315" fill="#878787" width="2.253" height="0.888"/>
					<rect x="283.106" y="69.315" fill="#878787" width="2.253" height="0.888"/>
					<rect x="286.463" y="69.315" fill="#878787" width="2.253" height="0.888"/>
					<rect x="289.818" y="69.315" fill="#878787" width="2.253" height="0.888"/>
				</g>
			</g>
			<g>
				<g>
					<rect x="293.175" y="69.315" fill="#878787" width="2.253" height="0.888"/>
					<rect x="296.53" y="69.315" fill="#878787" width="2.254" height="0.888"/>
					<rect x="299.886" y="69.315" fill="#878787" width="2.253" height="0.888"/>
					<rect x="303.243" y="69.315" fill="#878787" width="2.253" height="0.888"/>
					<rect x="306.599" y="69.315" fill="#878787" width="2.253" height="0.888"/>
					<rect x="309.955" y="69.315" fill="#878787" width="2.253" height="0.888"/>
					<rect x="313.311" y="69.315" fill="#878787" width="2.253" height="0.888"/>
				</g>
			</g>
		</g>
	</g>
</g>
<g>
	<g>
		<g>
			<g>
				<g>
					<rect x="58.25" y="108.746" fill="#9D9D9C" width="2.253" height="0.889"/>
					<rect x="61.606" y="108.746" fill="#9D9D9C" width="2.253" height="0.889"/>
					<rect x="64.962" y="108.746" fill="#9D9D9C" width="2.253" height="0.889"/>
					<rect x="68.318" y="108.746" fill="#9D9D9C" width="2.253" height="0.889"/>
					<rect x="71.674" y="108.746" fill="#9D9D9C" width="2.253" height="0.889"/>
					<rect x="75.031" y="108.746" fill="#9D9D9C" width="2.253" height="0.889"/>
					<rect x="78.386" y="108.746" fill="#9D9D9C" width="2.253" height="0.889"/>
				</g>
			</g>
			<g>
				<g>
					<rect x="81.743" y="108.746" fill="#9D9D9C" width="2.253" height="0.889"/>
					<rect x="85.099" y="108.746" fill="#9D9D9C" width="2.253" height="0.889"/>
					<rect x="88.454" y="108.746" fill="#9D9D9C" width="2.253" height="0.889"/>
					<rect x="91.811" y="108.746" fill="#9D9D9C" width="2.253" height="0.889"/>
					<rect x="95.167" y="108.746" fill="#9D9D9C" width="2.253" height="0.889"/>
					<rect x="98.523" y="108.746" fill="#9D9D9C" width="2.253" height="0.889"/>
					<rect x="101.879" y="108.746" fill="#9D9D9C" width="2.253" height="0.889"/>
				</g>
			</g>
			<g>
				<g>
					<rect x="105.235" y="108.746" fill="#9D9D9C" width="2.253" height="0.889"/>
					<rect x="108.591" y="108.746" fill="#9D9D9C" width="2.253" height="0.889"/>
					<rect x="111.947" y="108.746" fill="#9D9D9C" width="2.253" height="0.889"/>
					<rect x="115.303" y="108.746" fill="#9D9D9C" width="2.253" height="0.889"/>
					<rect x="118.659" y="108.746" fill="#9D9D9C" width="2.253" height="0.889"/>
					<rect x="122.016" y="108.746" fill="#9D9D9C" width="2.253" height="0.889"/>
					<rect x="125.371" y="108.746" fill="#9D9D9C" width="2.253" height="0.889"/>
				</g>
			</g>
			<g>
				<g>
					<rect x="128.728" y="108.746" fill="#9D9D9C" width="2.253" height="0.889"/>
					<rect x="132.083" y="108.746" fill="#9D9D9C" width="2.253" height="0.889"/>
					<rect x="135.439" y="108.746" fill="#9D9D9C" width="2.253" height="0.889"/>
					<rect x="138.796" y="108.746" fill="#9D9D9C" width="2.253" height="0.889"/>
					<rect x="142.151" y="108.746" fill="#9D9D9C" width="2.253" height="0.889"/>
					<rect x="145.508" y="108.746" fill="#9D9D9C" width="2.253" height="0.889"/>
					<rect x="148.864" y="108.746" fill="#9D9D9C" width="2.253" height="0.889"/>
				</g>
			</g>
			<g>
				<g>
					<rect x="152.22" y="108.746" fill="#9D9D9C" width="2.253" height="0.889"/>
					<rect x="155.576" y="108.746" fill="#9D9D9C" width="2.253" height="0.889"/>
					<rect x="158.932" y="108.746" fill="#9D9D9C" width="2.253" height="0.889"/>
					<rect x="162.288" y="108.746" fill="#9D9D9C" width="2.253" height="0.889"/>
					<rect x="165.644" y="108.746" fill="#9D9D9C" width="2.254" height="0.889"/>
					<rect x="169" y="108.746" fill="#9D9D9C" width="2.253" height="0.889"/>
					<rect x="172.356" y="108.746" fill="#9D9D9C" width="2.253" height="0.889"/>
				</g>
			</g>
			<g>
				<g>
					<rect x="175.712" y="108.746" fill="#9D9D9C" width="2.253" height="0.889"/>
					<rect x="179.068" y="108.746" fill="#9D9D9C" width="2.253" height="0.889"/>
					<rect x="182.424" y="108.746" fill="#9D9D9C" width="2.254" height="0.889"/>
					<rect x="185.781" y="108.746" fill="#9D9D9C" width="2.253" height="0.889"/>
					<rect x="189.136" y="108.746" fill="#9D9D9C" width="2.253" height="0.889"/>
					<rect x="192.493" y="108.746" fill="#9D9D9C" width="2.253" height="0.889"/>
					<rect x="195.849" y="108.746" fill="#9D9D9C" width="2.253" height="0.889"/>
				</g>
			</g>
			<g>
				<g>
					<rect x="199.205" y="108.746" fill="#9D9D9C" width="2.253" height="0.889"/>
					<rect x="202.561" y="108.746" fill="#9D9D9C" width="2.253" height="0.889"/>
					<rect x="205.917" y="108.746" fill="#9D9D9C" width="2.253" height="0.889"/>
					<rect x="209.273" y="108.746" fill="#9D9D9C" width="2.253" height="0.889"/>
					<rect x="212.629" y="108.746" fill="#9D9D9C" width="2.253" height="0.889"/>
					<rect x="215.985" y="108.746" fill="#9D9D9C" width="2.253" height="0.889"/>
					<rect x="219.341" y="108.746" fill="#9D9D9C" width="2.253" height="0.889"/>
				</g>
			</g>
			<g>
				<g>
					<rect x="222.697" y="108.746" fill="#9D9D9C" width="2.253" height="0.889"/>
					<rect x="226.053" y="108.746" fill="#9D9D9C" width="2.253" height="0.889"/>
					<rect x="229.409" y="108.746" fill="#9D9D9C" width="2.253" height="0.889"/>
					<rect x="232.766" y="108.746" fill="#9D9D9C" width="2.253" height="0.889"/>
					<rect x="236.121" y="108.746" fill="#9D9D9C" width="2.253" height="0.889"/>
					<rect x="239.478" y="108.746" fill="#9D9D9C" width="2.253" height="0.889"/>
					<rect x="242.833" y="108.746" fill="#9D9D9C" width="2.253" height="0.889"/>
				</g>
			</g>
			<g>
				<g>
					<rect x="246.189" y="108.746" fill="#9D9D9C" width="2.254" height="0.889"/>
					<rect x="249.545" y="108.746" fill="#9D9D9C" width="2.254" height="0.889"/>
					<rect x="252.901" y="108.746" fill="#9D9D9C" width="2.253" height="0.889"/>
					<rect x="256.258" y="108.746" fill="#9D9D9C" width="2.253" height="0.889"/>
					<rect x="259.614" y="108.746" fill="#9D9D9C" width="2.253" height="0.889"/>
					<rect x="262.97" y="108.746" fill="#9D9D9C" width="2.253" height="0.889"/>
					<rect x="266.326" y="108.746" fill="#9D9D9C" width="2.253" height="0.889"/>
				</g>
			</g>
			<g>
				<g>
					<rect x="269.682" y="108.746" fill="#9D9D9C" width="2.253" height="0.889"/>
					<rect x="273.038" y="108.746" fill="#9D9D9C" width="2.253" height="0.889"/>
					<rect x="276.394" y="108.746" fill="#9D9D9C" width="2.253" height="0.889"/>
					<rect x="279.75" y="108.746" fill="#9D9D9C" width="2.253" height="0.889"/>
					<rect x="283.106" y="108.746" fill="#9D9D9C" width="2.253" height="0.889"/>
					<rect x="286.463" y="108.746" fill="#9D9D9C" width="2.253" height="0.889"/>
					<rect x="289.818" y="108.746" fill="#9D9D9C" width="2.253" height="0.889"/>
				</g>
			</g>
			<g>
				<g>
					<rect x="293.175" y="108.746" fill="#9D9D9C" width="2.253" height="0.889"/>
					<rect x="296.53" y="108.746" fill="#9D9D9C" width="2.254" height="0.889"/>
					<rect x="299.886" y="108.746" fill="#9D9D9C" width="2.253" height="0.889"/>
					<rect x="303.243" y="108.746" fill="#9D9D9C" width="2.253" height="0.889"/>
					<rect x="306.599" y="108.746" fill="#9D9D9C" width="2.253" height="0.889"/>
					<rect x="309.955" y="108.746" fill="#9D9D9C" width="2.253" height="0.889"/>
					<rect x="313.311" y="108.746" fill="#9D9D9C" width="2.253" height="0.889"/>
				</g>
			</g>
		</g>
	</g>
</g>
<g>
	<g>
		<g>
			<g>
				<g>
					<rect x="82.869" y="132.336" fill="#9D9D9C" width="0.888" height="2.164"/>
					<rect x="82.869" y="129.113" fill="#9D9D9C" width="0.888" height="2.164"/>
					<rect x="82.869" y="125.89" fill="#9D9D9C" width="0.888" height="2.164"/>
					<rect x="82.869" y="122.667" fill="#9D9D9C" width="0.888" height="2.164"/>
					<rect x="82.869" y="119.443" fill="#9D9D9C" width="0.888" height="2.165"/>
					<rect x="82.869" y="116.22" fill="#9D9D9C" width="0.888" height="2.164"/>
					<rect x="82.869" y="112.998" fill="#9D9D9C" width="0.888" height="2.164"/>
				</g>
			</g>
			<g>
				<g>
					<rect x="82.869" y="109.773" fill="#9D9D9C" width="0.888" height="2.165"/>
					<rect x="82.869" y="106.55" fill="#9D9D9C" width="0.888" height="2.165"/>
					<rect x="82.869" y="103.328" fill="#9D9D9C" width="0.888" height="2.164"/>
					<rect x="82.869" y="100.104" fill="#9D9D9C" width="0.888" height="2.164"/>
					<rect x="82.869" y="96.881" fill="#9D9D9C" width="0.888" height="2.165"/>
					<rect x="82.869" y="93.657" fill="#9D9D9C" width="0.888" height="2.164"/>
					<rect x="82.869" y="90.435" fill="#9D9D9C" width="0.888" height="2.164"/>
				</g>
			</g>
			<g>
				<g>
					<rect x="82.869" y="87.211" fill="#9D9D9C" width="0.888" height="2.164"/>
					<rect x="82.869" y="83.988" fill="#9D9D9C" width="0.888" height="2.164"/>
					<rect x="82.869" y="80.765" fill="#9D9D9C" width="0.888" height="2.165"/>
					<rect x="82.869" y="77.542" fill="#9D9D9C" width="0.888" height="2.164"/>
					<rect x="82.869" y="74.318" fill="#9D9D9C" width="0.888" height="2.164"/>
					<rect x="82.869" y="71.095" fill="#9D9D9C" width="0.888" height="2.164"/>
					<rect x="82.869" y="67.872" fill="#9D9D9C" width="0.888" height="2.164"/>
				</g>
			</g>
			<g>
				<g>
					<rect x="82.869" y="64.648" fill="#9D9D9C" width="0.888" height="2.164"/>
					<rect x="82.869" y="61.425" fill="#9D9D9C" width="0.888" height="2.164"/>
					<rect x="82.869" y="58.202" fill="#9D9D9C" width="0.888" height="2.165"/>
					<rect x="82.869" y="54.979" fill="#9D9D9C" width="0.888" height="2.164"/>
					<rect x="82.869" y="51.756" fill="#9D9D9C" width="0.888" height="2.164"/>
					<rect x="82.869" y="48.532" fill="#9D9D9C" width="0.888" height="2.164"/>
					<rect x="82.869" y="45.31" fill="#9D9D9C" width="0.888" height="2.164"/>
				</g>
			</g>
		</g>
	</g>
</g>
<g>
	<g>
		<g>
			<g>
				<g>
					<rect x="291.568" y="132.336" fill="#9D9D9C" width="0.888" height="2.164"/>
					<rect x="291.568" y="129.113" fill="#9D9D9C" width="0.888" height="2.164"/>
					<rect x="291.568" y="125.89" fill="#9D9D9C" width="0.888" height="2.164"/>
					<rect x="291.568" y="122.667" fill="#9D9D9C" width="0.888" height="2.164"/>
					<rect x="291.568" y="119.443" fill="#9D9D9C" width="0.888" height="2.165"/>
					<rect x="291.568" y="116.22" fill="#9D9D9C" width="0.888" height="2.164"/>
					<rect x="291.568" y="112.998" fill="#9D9D9C" width="0.888" height="2.164"/>
				</g>
			</g>
			<g>
				<g>
					<rect x="291.568" y="109.773" fill="#9D9D9C" width="0.888" height="2.165"/>
					<rect x="291.568" y="106.55" fill="#9D9D9C" width="0.888" height="2.165"/>
					<rect x="291.568" y="103.328" fill="#9D9D9C" width="0.888" height="2.164"/>
					<rect x="291.568" y="100.104" fill="#9D9D9C" width="0.888" height="2.164"/>
					<rect x="291.568" y="96.881" fill="#9D9D9C" width="0.888" height="2.165"/>
					<rect x="291.568" y="93.657" fill="#9D9D9C" width="0.888" height="2.164"/>
					<rect x="291.568" y="90.435" fill="#9D9D9C" width="0.888" height="2.164"/>
				</g>
			</g>
			<g>
				<g>
					<rect x="291.568" y="87.211" fill="#9D9D9C" width="0.888" height="2.164"/>
					<rect x="291.568" y="83.988" fill="#9D9D9C" width="0.888" height="2.164"/>
					<rect x="291.568" y="80.765" fill="#9D9D9C" width="0.888" height="2.165"/>
					<rect x="291.568" y="77.542" fill="#9D9D9C" width="0.888" height="2.164"/>
					<rect x="291.568" y="74.318" fill="#9D9D9C" width="0.888" height="2.164"/>
					<rect x="291.568" y="71.095" fill="#9D9D9C" width="0.888" height="2.164"/>
					<rect x="291.568" y="67.872" fill="#9D9D9C" width="0.888" height="2.164"/>
				</g>
			</g>
			<g>
				<g>
					<rect x="291.568" y="64.648" fill="#9D9D9C" width="0.888" height="2.164"/>
					<rect x="291.568" y="61.425" fill="#9D9D9C" width="0.888" height="2.164"/>
					<rect x="291.568" y="58.202" fill="#9D9D9C" width="0.888" height="2.165"/>
					<rect x="291.568" y="54.979" fill="#9D9D9C" width="0.888" height="2.164"/>
					<rect x="291.568" y="51.756" fill="#9D9D9C" width="0.888" height="2.164"/>
					<rect x="291.568" y="48.532" fill="#9D9D9C" width="0.888" height="2.164"/>
					<rect x="291.568" y="45.31" fill="#9D9D9C" width="0.888" height="2.164"/>
				</g>
			</g>
		</g>
	</g>
</g>
<g>
	<g>
		<g>
			<g>
				<g>
					<rect x="119.551" y="83.815" fill="#878787" width="2.363" height="0.888"/>
					<rect x="123.071" y="83.815" fill="#878787" width="2.363" height="0.888"/>
					<rect x="126.59" y="83.815" fill="#878787" width="2.363" height="0.888"/>
					<rect x="130.111" y="83.815" fill="#878787" width="2.363" height="0.888"/>
					<rect x="133.63" y="83.815" fill="#878787" width="2.363" height="0.888"/>
					<rect x="137.151" y="83.815" fill="#878787" width="2.363" height="0.888"/>
					<rect x="140.67" y="83.815" fill="#878787" width="2.363" height="0.888"/>
				</g>
			</g>
			<g>
				<g>
					<rect x="144.19" y="83.815" fill="#878787" width="2.363" height="0.888"/>
					<rect x="147.71" y="83.815" fill="#878787" width="2.364" height="0.888"/>
					<rect x="151.23" y="83.815" fill="#878787" width="2.363" height="0.888"/>
					<rect x="154.75" y="83.815" fill="#878787" width="2.363" height="0.888"/>
					<rect x="158.27" y="83.815" fill="#878787" width="2.364" height="0.888"/>
					<rect x="161.791" y="83.815" fill="#878787" width="2.363" height="0.888"/>
					<rect x="165.31" y="83.815" fill="#878787" width="2.363" height="0.888"/>
				</g>
			</g>
			<g>
				<g>
					<rect x="168.83" y="83.815" fill="#878787" width="2.363" height="0.888"/>
					<rect x="172.35" y="83.815" fill="#878787" width="2.364" height="0.888"/>
					<rect x="175.869" y="83.815" fill="#878787" width="2.364" height="0.888"/>
					<rect x="179.39" y="83.815" fill="#878787" width="2.363" height="0.888"/>
					<rect x="182.909" y="83.815" fill="#878787" width="2.364" height="0.888"/>
					<rect x="186.43" y="83.815" fill="#878787" width="2.363" height="0.888"/>
					<rect x="189.949" y="83.815" fill="#878787" width="2.363" height="0.888"/>
				</g>
			</g>
			<g>
				<g>
					<rect x="193.469" y="83.815" fill="#878787" width="2.364" height="0.888"/>
					<rect x="196.989" y="83.815" fill="#878787" width="2.363" height="0.888"/>
					<rect x="200.509" y="83.815" fill="#878787" width="2.363" height="0.888"/>
					<rect x="204.029" y="83.815" fill="#878787" width="2.363" height="0.888"/>
					<rect x="207.549" y="83.815" fill="#878787" width="2.363" height="0.888"/>
					<rect x="211.069" y="83.815" fill="#878787" width="2.363" height="0.888"/>
					<rect x="214.589" y="83.815" fill="#878787" width="2.363" height="0.888"/>
				</g>
			</g>
			<g>
				<g>
					<rect x="218.109" y="83.815" fill="#878787" width="2.363" height="0.888"/>
					<rect x="221.629" y="83.815" fill="#878787" width="2.363" height="0.888"/>
					<rect x="225.148" y="83.815" fill="#878787" width="2.363" height="0.888"/>
					<rect x="228.669" y="83.815" fill="#878787" width="2.363" height="0.888"/>
					<rect x="232.188" y="83.815" fill="#878787" width="2.363" height="0.888"/>
					<rect x="235.709" y="83.815" fill="#878787" width="2.363" height="0.888"/>
					<rect x="239.229" y="83.815" fill="#878787" width="2.363" height="0.888"/>
				</g>
			</g>
			<g>
				<g>
					<rect x="242.749" y="83.815" fill="#878787" width="2.363" height="0.888"/>
					<rect x="246.268" y="83.815" fill="#878787" width="2.364" height="0.888"/>
					<rect x="249.788" y="83.815" fill="#878787" width="2.363" height="0.888"/>
					<rect x="253.309" y="83.815" fill="#878787" width="2.363" height="0.888"/>
					<rect x="256.828" y="83.815" fill="#878787" width="2.364" height="0.888"/>
					<rect x="260.349" y="83.815" fill="#878787" width="2.363" height="0.888"/>
					<rect x="263.868" y="83.815" fill="#878787" width="2.363" height="0.888"/>
				</g>
			</g>
			<g>
				<g>
					<rect x="267.388" y="83.815" fill="#878787" width="2.364" height="0.888"/>
					<rect x="270.908" y="83.815" fill="#878787" width="2.364" height="0.888"/>
					<rect x="274.427" y="83.815" fill="#878787" width="2.364" height="0.888"/>
					<rect x="277.948" y="83.815" fill="#878787" width="2.363" height="0.888"/>
					<rect x="281.467" y="83.815" fill="#878787" width="2.364" height="0.888"/>
					<rect x="284.988" y="83.815" fill="#878787" width="2.363" height="0.888"/>
					<rect x="288.507" y="83.815" fill="#878787" width="2.363" height="0.888"/>
				</g>
			</g>
			<g>
				<g>
					<rect x="292.027" y="83.815" fill="#878787" width="2.364" height="0.888"/>
					<rect x="295.547" y="83.815" fill="#878787" width="2.363" height="0.888"/>
					<rect x="299.067" y="83.815" fill="#878787" width="2.364" height="0.888"/>
					<rect x="302.587" y="83.815" fill="#878787" width="2.363" height="0.888"/>
					<rect x="306.107" y="83.815" fill="#878787" width="2.363" height="0.888"/>
					<rect x="309.627" y="83.815" fill="#878787" width="2.363" height="0.888"/>
					<rect x="313.147" y="83.815" fill="#878787" width="2.363" height="0.888"/>
				</g>
			</g>
		</g>
	</g>
</g>
<g>
	<g>
		<path fill="#BE1622" d="M306.696,95.801v1.834c-0.962,0.01-1.653,0.36-2.073,1.051c-0.42,0.691-0.63,1.909-0.63,3.655v2.773
			c0,3.277-1.368,4.836-4.104,4.678v-1.555c1.111,0,1.809-0.236,2.094-0.708s0.427-1.278,0.427-2.417v-2.774
			c0-3.092,0.929-4.97,2.787-5.633c-1.858-0.662-2.787-2.533-2.787-5.612v-2.785c0-1.139-0.143-1.943-0.427-2.415
			s-0.982-0.707-2.094-0.707v-1.555c2.736-0.159,4.104,1.4,4.104,4.678v2.787c0,1.737,0.21,2.951,0.63,3.641
			C305.043,95.428,305.734,95.782,306.696,95.801z"/>
	</g>
	<g>
		<path fill="#BE1622" d="M308.814,100.177l0.516-1.072c0.145,0.082,0.309,0.123,0.492,0.123c0.594,0,1.338-0.535,2.232-1.605
			l0.352-0.428l-0.797-1.875c-0.199-0.473-0.395-0.709-0.586-0.709c-0.234,0-0.59,0.318-1.066,0.955l0.152-0.768
			c0.57-0.75,1.059-1.125,1.465-1.125c0.379,0,0.734,0.379,1.066,1.137l0.668,1.529l0.381-0.486c1.141-1.453,2.076-2.18,2.807-2.18
			c0.195,0,0.396,0.064,0.604,0.193l-0.604,1.066c-0.16-0.098-0.314-0.146-0.463-0.146c-0.648,0-1.41,0.535-2.285,1.605l-0.281,0.34
			l0.879,2.045c0.203,0.488,0.406,0.732,0.609,0.732c0.277,0,0.664-0.291,1.16-0.873l-0.141,0.703
			c-0.598,0.656-1.127,0.984-1.588,0.984c-0.441,0-0.799-0.322-1.072-0.967l-0.756-1.793l-0.475,0.604
			c-1.129,1.438-2.012,2.156-2.648,2.156C309.275,100.324,309.068,100.275,308.814,100.177z"/>
	</g>
</g>
<g>
	<g>
		<path fill="#BE1622" d="M326.787,56.125v1.834c-0.962,0.01-1.653,0.36-2.073,1.051c-0.42,0.691-0.63,1.909-0.63,3.655v2.773
			c0,3.277-1.368,4.836-4.104,4.678v-1.555c1.111,0,1.809-0.236,2.094-0.708s0.427-1.278,0.427-2.417v-2.774
			c0-3.092,0.929-4.97,2.787-5.633c-1.858-0.662-2.787-2.533-2.787-5.612v-2.785c0-1.139-0.143-1.943-0.427-2.415
			s-0.982-0.707-2.094-0.707v-1.555c2.736-0.159,4.104,1.4,4.104,4.678v2.787c0,1.737,0.21,2.951,0.63,3.641
			C325.134,55.752,325.825,56.106,326.787,56.125z"/>
	</g>
	<g>
		<path fill="#BE1622" d="M328.905,60.501l0.516-1.072c0.145,0.082,0.309,0.123,0.492,0.123c0.594,0,1.338-0.535,2.232-1.605
			l0.352-0.428l-0.797-1.875c-0.199-0.473-0.395-0.709-0.586-0.709c-0.234,0-0.59,0.318-1.066,0.955l0.152-0.768
			c0.57-0.75,1.059-1.125,1.465-1.125c0.379,0,0.734,0.379,1.066,1.137l0.668,1.529l0.381-0.486c1.141-1.453,2.076-2.18,2.807-2.18
			c0.195,0,0.396,0.064,0.604,0.193l-0.604,1.066c-0.16-0.098-0.314-0.146-0.463-0.146c-0.648,0-1.41,0.535-2.285,1.605l-0.281,0.34
			l0.879,2.045c0.203,0.488,0.406,0.732,0.609,0.732c0.277,0,0.664-0.291,1.16-0.873l-0.141,0.703
			c-0.598,0.656-1.127,0.984-1.588,0.984c-0.441,0-0.799-0.322-1.072-0.967l-0.756-1.793l-0.475,0.604
			c-1.129,1.438-2.012,2.156-2.648,2.156C329.366,60.648,329.159,60.599,328.905,60.501z"/>
	</g>
</g>
<g>
	<g>
		<path fill="#BE1622" d="M327.286,120.875v1.834c-0.962,0.01-1.653,0.36-2.073,1.051c-0.42,0.691-0.63,1.909-0.63,3.655v2.773
			c0,3.277-1.368,4.836-4.104,4.678v-1.555c1.111,0,1.809-0.236,2.094-0.708s0.427-1.278,0.427-2.417v-2.774
			c0-3.092,0.929-4.97,2.787-5.633c-1.858-0.662-2.787-2.533-2.787-5.612v-2.785c0-1.139-0.143-1.943-0.427-2.415
			s-0.982-0.707-2.094-0.707v-1.555c2.736-0.159,4.104,1.4,4.104,4.678v2.787c0,1.737,0.21,2.951,0.63,3.641
			C325.633,120.502,326.324,120.856,327.286,120.875z"/>
	</g>
	<g>
		<path fill="#BE1622" d="M329.404,125.251l0.516-1.072c0.145,0.082,0.309,0.123,0.492,0.123c0.594,0,1.338-0.535,2.232-1.605
			l0.352-0.428l-0.797-1.875c-0.199-0.473-0.395-0.709-0.586-0.709c-0.234,0-0.59,0.318-1.066,0.955l0.152-0.768
			c0.57-0.75,1.059-1.125,1.465-1.125c0.379,0,0.734,0.379,1.066,1.137l0.668,1.529l0.381-0.486c1.141-1.453,2.076-2.18,2.807-2.18
			c0.195,0,0.396,0.064,0.604,0.193l-0.604,1.066c-0.16-0.098-0.314-0.146-0.463-0.146c-0.648,0-1.41,0.535-2.285,1.605l-0.281,0.34
			l0.879,2.045c0.203,0.488,0.406,0.732,0.609,0.732c0.277,0,0.664-0.291,1.16-0.873l-0.141,0.703
			c-0.598,0.656-1.127,0.984-1.588,0.984c-0.441,0-0.799-0.322-1.072-0.967l-0.756-1.793l-0.475,0.604
			c-1.129,1.438-2.012,2.156-2.648,2.156C329.865,125.398,329.658,125.349,329.404,125.251z"/>
	</g>
</g>
<g>
	<g>
		<path fill="#BE1622" d="M303.605,36.099h1.834c0.01,0.962,0.36,1.653,1.051,2.073c0.691,0.42,1.909,0.63,3.655,0.63h2.773
			c3.277,0,4.836,1.368,4.678,4.104h-1.555c0-1.111-0.236-1.809-0.708-2.094s-1.278-0.427-2.417-0.427h-2.774
			c-3.092,0-4.97-0.929-5.633-2.787c-0.662,1.858-2.533,2.787-5.612,2.787h-2.785c-1.139,0-1.943,0.143-2.415,0.427
			s-0.707,0.982-0.707,2.094h-1.555c-0.159-2.736,1.4-4.104,4.678-4.104h2.787c1.737,0,2.951-0.21,3.641-0.63
			C303.232,37.751,303.587,37.061,303.605,36.099z"/>
	</g>
	<g>
		<path fill="#BE1622" d="M300.936,32.918l0.516-1.072c0.145,0.082,0.309,0.123,0.492,0.123c0.594,0,1.338-0.535,2.232-1.605
			l0.352-0.428l-0.797-1.875c-0.199-0.473-0.395-0.709-0.586-0.709c-0.234,0-0.59,0.318-1.066,0.955l0.152-0.768
			c0.57-0.75,1.059-1.125,1.465-1.125c0.379,0,0.734,0.379,1.066,1.137l0.668,1.529l0.381-0.486c1.141-1.453,2.076-2.18,2.807-2.18
			c0.195,0,0.396,0.064,0.604,0.193l-0.604,1.066c-0.16-0.098-0.314-0.146-0.463-0.146c-0.648,0-1.41,0.535-2.285,1.605l-0.281,0.34
			l0.879,2.045c0.203,0.488,0.406,0.732,0.609,0.732c0.277,0,0.664-0.291,1.16-0.873l-0.141,0.703
			c-0.598,0.656-1.127,0.984-1.588,0.984c-0.441,0-0.799-0.322-1.072-0.967l-0.756-1.793l-0.475,0.604
			c-1.129,1.438-2.012,2.156-2.648,2.156C301.397,33.065,301.19,33.016,300.936,32.918z"/>
	</g>
</g>
<g>
	<g>
		<path fill="#BE1622" d="M69.939,36.433h1.834c0.01,0.962,0.36,1.653,1.051,2.073c0.691,0.42,1.909,0.63,3.655,0.63h2.773
			c3.277,0,4.836,1.368,4.678,4.104h-1.555c0-1.111-0.236-1.809-0.708-2.094s-1.278-0.427-2.417-0.427h-2.774
			c-3.092,0-4.97-0.929-5.633-2.787c-0.662,1.858-2.533,2.787-5.612,2.787h-2.785c-1.139,0-1.943,0.143-2.415,0.427
			s-0.707,0.982-0.707,2.094h-1.555c-0.159-2.736,1.4-4.104,4.678-4.104h2.787c1.737,0,2.951-0.21,3.641-0.63
			C69.566,38.085,69.92,37.395,69.939,36.433z"/>
	</g>
	<g>
		<path fill="#BE1622" d="M67.27,33.252l0.516-1.072c0.145,0.082,0.309,0.123,0.492,0.123c0.594,0,1.338-0.535,2.232-1.605
			l0.352-0.428l-0.797-1.875c-0.199-0.473-0.395-0.709-0.586-0.709c-0.234,0-0.59,0.318-1.066,0.955l0.152-0.768
			c0.57-0.75,1.059-1.125,1.465-1.125c0.379,0,0.734,0.379,1.066,1.137l0.668,1.529l0.381-0.486c1.141-1.453,2.076-2.18,2.807-2.18
			c0.195,0,0.396,0.064,0.604,0.193l-0.604,1.066c-0.16-0.098-0.314-0.146-0.463-0.146c-0.648,0-1.41,0.535-2.285,1.605l-0.281,0.34
			l0.879,2.045c0.203,0.488,0.406,0.732,0.609,0.732c0.277,0,0.664-0.291,1.16-0.873l-0.141,0.703
			c-0.598,0.656-1.127,0.984-1.588,0.984c-0.441,0-0.799-0.322-1.072-0.967l-0.756-1.793l-0.475,0.604
			c-1.129,1.438-2.012,2.156-2.648,2.156C67.73,33.398,67.523,33.35,67.27,33.252z"/>
	</g>
</g>
<rect x="382.25" y="44.337" fill="#F39200" width="258.417" height="90.25"/>
<g>
	<g>
		<path fill="#FFFFFF" d="M501.61,86.298c1.75,1.464,2.627,3.72,2.627,6.768c0,3.048-0.895,5.28-2.682,6.696
			c-1.789,1.417-4.531,2.124-8.226,2.124h-4.464v7.38h-4.248V84.102h8.64C497.073,84.102,499.856,84.834,501.61,86.298z
			 M498.602,96.684c0.854-0.9,1.279-2.22,1.279-3.96c0-1.74-0.541-2.97-1.621-3.69c-1.08-0.72-2.771-1.08-5.075-1.08h-4.32v10.08
			h4.932C496.149,98.034,497.75,97.583,498.602,96.684z"/>
		<path fill="#FFFFFF" d="M529.138,84.102v3.996H515.71v6.66h12.06v3.78h-12.06v6.732h13.859v3.996h-18.107V84.102H529.138z"/>
		<path fill="#FFFFFF" d="M541.885,103.542l-2.52,5.724h-4.536l11.088-25.164h4.536l11.088,25.164h-4.536l-2.52-5.724H541.885z
			 M552.757,99.618l-4.571-10.368l-4.572,10.368H552.757z"/>
		<path fill="#FFFFFF" d="M577.848,105.414c1.464,0,2.724-0.246,3.78-0.738c1.056-0.492,2.16-1.278,3.312-2.358l2.735,2.808
			c-2.664,2.952-5.898,4.428-9.702,4.428s-6.96-1.224-9.468-3.672c-2.508-2.448-3.762-5.544-3.762-9.288
			c0-3.744,1.278-6.864,3.834-9.36c2.556-2.496,5.783-3.744,9.684-3.744s7.158,1.44,9.774,4.32l-2.7,2.952
			c-1.2-1.152-2.334-1.956-3.402-2.412c-1.067-0.456-2.321-0.684-3.762-0.684c-2.544,0-4.68,0.822-6.408,2.466
			c-1.728,1.644-2.592,3.744-2.592,6.3s0.858,4.692,2.574,6.408S575.497,105.414,577.848,105.414z"/>
		<path fill="#FFFFFF" d="M594.804,109.266V84.102h4.248V95.01h12.492V84.102h4.248v25.164h-4.248V98.97h-12.492v10.296H594.804z"/>
	</g>
	<rect x="407.301" y="91.264" fill="#FFFFFF" width="16" height="18"/>
	<rect x="427.551" y="69.834" fill="#FFFFFF" width="16" height="39.43"/>
	<rect x="447.801" y="84.334" fill="#FFFFFF" width="16" height="24.93"/>
</g>
</svg>
