<?xml version="1.0" encoding="utf-8"?>
<!-- Generator: Adobe Illustrator 16.0.0, SVG Export Plug-In . SVG Version: 6.00 Build 0)  -->
<!DOCTYPE svg PUBLIC "-//W3C//DTD SVG 1.1//EN" "http://www.w3.org/Graphics/SVG/1.1/DTD/svg11.dtd">
<svg version="1.1" id="Layer_1" xmlns="http://www.w3.org/2000/svg" xmlns:xlink="http://www.w3.org/1999/xlink" x="0px" y="0px"
	 width="422.979px" height="166.814px" viewBox="0 0 422.979 166.814" enable-background="new 0 0 422.979 166.814"
	 xml:space="preserve">
<g>
	<g>
		<path fill="#FFFFFF" d="M119.852,41.961c1.75,1.464,2.627,3.721,2.627,6.768c0,3.049-0.895,5.28-2.682,6.696
			c-1.789,1.417-4.531,2.124-8.227,2.124h-4.464v7.38h-4.248V39.765h8.64C115.315,39.765,118.098,40.497,119.852,41.961z
			 M116.844,52.347c0.854-0.899,1.279-2.22,1.279-3.96s-0.541-2.971-1.621-3.689c-1.08-0.721-2.771-1.08-5.076-1.08h-4.319v10.08
			h4.932C114.391,53.697,115.993,53.246,116.844,52.347z"/>
		<path fill="#FFFFFF" d="M147.379,39.765v3.996h-13.428v6.66h12.061v3.78h-12.061v6.731h13.859v3.996h-18.107V39.765H147.379z"/>
		<path fill="#FFFFFF" d="M160.127,59.205l-2.52,5.724h-4.537l11.088-25.164h4.537l11.088,25.164h-4.537l-2.52-5.724H160.127z
			 M170.999,55.281l-4.57-10.369l-4.572,10.369H170.999z"/>
		<path fill="#FFFFFF" d="M196.089,61.076c1.465,0,2.725-0.245,3.781-0.737c1.055-0.491,2.16-1.278,3.312-2.358l2.734,2.809
			c-2.664,2.951-5.898,4.428-9.701,4.428c-3.805,0-6.96-1.225-9.468-3.672c-2.508-2.448-3.762-5.545-3.762-9.288
			c0-3.744,1.277-6.864,3.834-9.36c2.555-2.496,5.782-3.744,9.683-3.744s7.158,1.44,9.775,4.32l-2.701,2.952
			c-1.199-1.151-2.334-1.956-3.402-2.412c-1.066-0.456-2.32-0.685-3.762-0.685c-2.543,0-4.68,0.822-6.407,2.467
			c-1.729,1.645-2.592,3.744-2.592,6.3s0.857,4.692,2.574,6.408C191.705,60.219,193.738,61.076,196.089,61.076z"/>
		<path fill="#FFFFFF" d="M213.046,64.929V39.765h4.248v10.908h12.493V39.765h4.248v25.164h-4.248V54.633h-12.493v10.296H213.046z"
			/>
	</g>
	<rect x="25.542" y="46.928" fill="#FFFFFF" width="16" height="18"/>
	<rect x="45.792" y="25.498" fill="#FFFFFF" width="16" height="39.43"/>
	<rect x="66.042" y="39.998" fill="#FFFFFF" width="16" height="24.93"/>
</g>
<g>
	<path fill="#FFFFFF" d="M52.469,132.927c2.927,0,5.447-0.492,7.56-1.477c2.112-0.982,4.32-2.556,6.624-4.716l5.473,5.616
		c-5.328,5.904-11.797,8.856-19.404,8.856c-7.608,0-13.921-2.448-18.937-7.345c-5.016-4.896-7.523-11.088-7.523-18.576
		c0-7.487,2.556-13.727,7.668-18.72c5.112-4.991,11.567-7.487,19.368-7.487c7.8,0,14.315,2.88,19.548,8.64l-5.4,5.904
		c-2.4-2.305-4.669-3.912-6.804-4.824c-2.137-0.911-4.644-1.368-7.524-1.368c-5.088,0-9.359,1.645-12.815,4.932
		c-3.456,3.289-5.185,7.488-5.185,12.601c0,5.111,1.716,9.385,5.148,12.815C43.696,131.211,47.764,132.927,52.469,132.927z"/>
	<path fill="#FFFFFF" d="M86.093,140.631V90.303h8.496v21.815h24.983V90.303h8.496v50.328h-8.496v-20.592H94.589v20.592H86.093z"/>
	<path fill="#FFFFFF" d="M152.764,129.183l-5.04,11.448h-9.072l22.176-50.328h9.072l22.176,50.328h-9.072l-5.04-11.448H152.764z
		 M174.508,121.335l-9.145-20.736l-9.144,20.736H174.508z"/>
	<path fill="#FFFFFF" d="M217.707,98.079v42.552h-8.496V98.079h-15.264v-7.776h39.023v7.776H217.707z"/>
	<path fill="#FFFFFF" d="M267.818,140.631h-22.031V90.303h19.584c3.407,0,6.347,0.408,8.819,1.224
		c2.472,0.817,4.308,1.921,5.509,3.312c2.304,2.592,3.455,5.521,3.455,8.784c0,3.936-1.248,6.864-3.743,8.783
		c-0.913,0.673-1.537,1.093-1.872,1.261c-0.337,0.168-0.937,0.444-1.801,0.827c3.12,0.673,5.604,2.077,7.452,4.213
		s2.772,4.787,2.772,7.956c0,3.504-1.2,6.6-3.601,9.287C279.53,139.071,274.683,140.631,267.818,140.631z M254.283,111.183h10.8
		c6.144,0,9.216-2.088,9.216-6.264c0-2.4-0.745-4.128-2.232-5.185c-1.488-1.055-3.792-1.584-6.912-1.584h-10.871V111.183z
		 M254.283,132.782h13.319c3.12,0,5.508-0.491,7.164-1.476c1.656-0.983,2.484-2.844,2.484-5.58c0-4.464-3.576-6.696-10.729-6.696
		h-12.239V132.782z"/>
	<path fill="#FFFFFF" d="M342.338,133.683c-5.088,4.968-11.376,7.452-18.863,7.452c-7.488,0-13.777-2.484-18.864-7.452
		c-5.088-4.968-7.632-11.16-7.632-18.576s2.544-13.607,7.632-18.576c5.087-4.968,11.376-7.451,18.864-7.451
		c7.487,0,13.775,2.483,18.863,7.451c5.088,4.969,7.633,11.16,7.633,18.576S347.426,128.715,342.338,133.683z M336.11,102.183
		c-3.433-3.552-7.645-5.328-12.636-5.328c-4.993,0-9.205,1.776-12.637,5.328c-3.432,3.553-5.147,7.86-5.147,12.924
		c0,5.064,1.716,9.372,5.147,12.924c3.432,3.553,7.644,5.328,12.637,5.328c4.991,0,9.203-1.775,12.636-5.328
		c3.432-3.552,5.148-7.859,5.148-12.924C341.259,110.043,339.542,105.735,336.11,102.183z"/>
	<path fill="#FFFFFF" d="M381.938,98.079v42.552h-8.496V98.079h-15.264v-7.776h39.023v7.776H381.938z"/>
</g>
</svg>
