<?xml version="1.0" encoding="utf-8"?>
<!-- Generator: Adobe Illustrator 16.0.0, SVG Export Plug-In . SVG Version: 6.00 Build 0)  -->
<!DOCTYPE svg PUBLIC "-//W3C//DTD SVG 1.1//EN" "http://www.w3.org/Graphics/SVG/1.1/DTD/svg11.dtd">
<svg version="1.1" id="Layer_1" xmlns="http://www.w3.org/2000/svg" xmlns:xlink="http://www.w3.org/1999/xlink" x="0px" y="0px"
	 width="620.979px" height="166.814px" viewBox="0 0 620.979 166.814" enable-background="new 0 0 620.979 166.814"
	 xml:space="preserve">
<g>
	<g>
		<path d="M119.853,41.961c1.75,1.464,2.627,3.721,2.627,6.768c0,3.049-0.895,5.28-2.682,6.696
			c-1.789,1.417-4.531,2.124-8.227,2.124h-4.465v7.38h-4.248V39.765h8.641C115.315,39.765,118.099,40.497,119.853,41.961z
			 M116.845,52.347c0.854-0.899,1.279-2.22,1.279-3.96s-0.541-2.971-1.621-3.689c-1.08-0.721-2.771-1.08-5.076-1.08h-4.32v10.08
			h4.932C114.392,53.697,115.993,53.246,116.845,52.347z"/>
		<path d="M147.38,39.765v3.996h-13.428v6.66h12.061v3.78h-12.061v6.731h13.859v3.996h-18.107V39.765H147.38z"/>
		<path d="M160.128,59.205l-2.52,5.724h-4.537l11.088-25.164h4.537l11.088,25.164h-4.537l-2.52-5.724H160.128z M170.999,55.281
			l-4.57-10.369l-4.572,10.369H170.999z"/>
		<path d="M196.089,61.076c1.465,0,2.725-0.245,3.781-0.737c1.055-0.491,2.16-1.278,3.312-2.358l2.734,2.809
			c-2.664,2.951-5.898,4.428-9.701,4.428c-3.805,0-6.959-1.225-9.467-3.672c-2.508-2.448-3.762-5.545-3.762-9.288
			c0-3.744,1.277-6.864,3.834-9.36c2.555-2.496,5.781-3.744,9.682-3.744s7.158,1.44,9.775,4.32l-2.701,2.952
			c-1.199-1.151-2.334-1.956-3.402-2.412c-1.066-0.456-2.32-0.685-3.762-0.685c-2.543,0-4.68,0.822-6.406,2.467
			c-1.729,1.645-2.592,3.744-2.592,6.3s0.857,4.692,2.574,6.408C191.704,60.219,193.737,61.076,196.089,61.076z"/>
		<path d="M213.046,64.929V39.765h4.248v10.908h12.492V39.765h4.248v25.164h-4.248V54.633h-12.492v10.296H213.046z"/>
	</g>
	<rect x="25.542" y="46.928" width="16" height="18"/>
	<rect x="45.792" y="25.498" width="16" height="39.43"/>
	<rect x="66.042" y="39.998" width="16" height="24.93"/>
</g>
<g>
	<path d="M63.587,96.89c4.848,4.392,7.271,10.501,7.271,18.324c0,7.824-2.353,14.017-7.056,18.576
		c-4.705,4.561-11.905,6.84-21.6,6.84H25.5V90.302h17.279C51.803,90.302,58.739,92.498,63.587,96.89z M62.292,115.43
		c0-11.521-6.601-17.28-19.801-17.28h-8.495v34.488h9.432c6.095,0,10.764-1.451,14.004-4.356
		C60.671,125.378,62.292,121.094,62.292,115.43z"/>
	<path d="M120.755,90.302v7.992H93.9v13.319h24.119v7.561H93.9v13.464h27.72v7.992H85.404V90.302H120.755z"/>
	<path d="M151.318,96.926c-2.473,0-4.5,0.504-6.084,1.512s-2.376,2.532-2.376,4.572c0,2.041,0.792,3.6,2.376,4.68
		s4.956,2.244,10.116,3.492c5.159,1.249,9.047,3,11.664,5.256c2.615,2.257,3.924,5.58,3.924,9.972c0,4.393-1.656,7.956-4.968,10.692
		c-3.312,2.736-7.657,4.104-13.032,4.104c-7.873,0-14.856-2.712-20.952-8.137l5.328-6.407c5.087,4.416,10.368,6.623,15.84,6.623
		c2.736,0,4.907-0.587,6.517-1.764c1.607-1.176,2.411-2.736,2.411-4.68c0-1.944-0.756-3.456-2.268-4.536s-4.116-2.063-7.812-2.952
		c-3.697-0.888-6.505-1.703-8.425-2.448c-1.92-0.743-3.624-1.715-5.111-2.916c-2.978-2.255-4.464-5.711-4.464-10.367
		c0-4.655,1.691-8.244,5.075-10.765c3.385-2.52,7.571-3.779,12.564-3.779c3.215,0,6.408,0.528,9.576,1.584s5.903,2.544,8.208,4.464
		l-4.536,6.407c-1.488-1.343-3.505-2.447-6.048-3.312C156.297,97.357,153.79,96.926,151.318,96.926z"/>
	<path d="M185.05,90.302h8.496v50.328h-8.496V90.302z"/>
	<path d="M245.961,116.149h8.496v17.208c-4.752,5.232-11.545,7.849-20.376,7.849c-7.44,0-13.669-2.448-18.685-7.345
		c-5.016-4.896-7.523-11.088-7.523-18.576c0-7.487,2.556-13.727,7.668-18.72c5.112-4.991,11.292-7.487,18.54-7.487
		c7.247,0,13.271,2.112,18.072,6.336l-4.536,6.479c-1.969-1.68-3.949-2.844-5.94-3.492c-1.992-0.647-4.309-0.972-6.948-0.972
		c-5.088,0-9.359,1.645-12.815,4.932c-3.456,3.289-5.185,7.608-5.185,12.96c0,5.354,1.68,9.648,5.04,12.889
		c3.359,3.239,7.428,4.859,12.204,4.859c4.775,0,8.771-1.031,11.988-3.096V116.149z"/>
	<path d="M306.945,90.302h8.496v50.328h-9.216l-28.512-36.721v36.721h-8.496V90.302h8.496l29.231,37.584V90.302z"/>
	<path d="M391.184,116.149h8.496v17.208c-4.752,5.232-11.545,7.849-20.377,7.849c-7.439,0-13.668-2.448-18.684-7.345
		c-5.016-4.896-7.523-11.088-7.523-18.576c0-7.487,2.555-13.727,7.668-18.72c5.111-4.991,11.291-7.487,18.539-7.487
		s13.271,2.112,18.072,6.336l-4.535,6.479c-1.969-1.68-3.949-2.844-5.941-3.492c-1.992-0.647-4.309-0.972-6.947-0.972
		c-5.088,0-9.359,1.645-12.816,4.932c-3.455,3.289-5.184,7.608-5.184,12.96c0,5.354,1.68,9.648,5.039,12.889
		c3.359,3.239,7.428,4.859,12.205,4.859c4.775,0,8.771-1.031,11.988-3.096V116.149z"/>
	<path d="M425.742,129.109c2.305,2.689,5.424,4.032,9.361,4.032c3.934,0,7.055-1.343,9.359-4.032
		c2.303-2.688,3.455-6.336,3.455-10.943V90.302h8.496v28.224c0,7.249-1.992,12.829-5.975,16.74
		c-3.986,3.913-9.098,5.868-15.336,5.868c-6.242,0-11.354-1.955-15.338-5.868c-3.984-3.911-5.975-9.491-5.975-16.74V90.302h8.496
		v27.864C422.287,122.773,423.439,126.422,425.742,129.109z"/>
	<path d="M473.334,90.302h8.496v50.328h-8.496V90.302z"/>
	<path d="M537.486,96.89c4.848,4.392,7.271,10.501,7.271,18.324c0,7.824-2.354,14.017-7.057,18.576
		c-4.705,4.561-11.904,6.84-21.6,6.84h-16.703V90.302h17.279C525.701,90.302,532.637,92.498,537.486,96.89z M536.189,115.43
		c0-11.521-6.6-17.28-19.801-17.28h-8.494v34.488h9.432c6.094,0,10.764-1.451,14.004-4.356
		C534.57,125.378,536.189,121.094,536.189,115.43z"/>
	<path d="M594.654,90.302v7.992h-26.855v13.319h24.119v7.561h-24.119v13.464h27.719v7.992h-36.215V90.302H594.654z"/>
</g>
</svg>
