<?xml version="1.0" encoding="utf-8"?>
<!-- Generator: Adobe Illustrator 16.0.0, SVG Export Plug-In . SVG Version: 6.00 Build 0)  -->
<!DOCTYPE svg PUBLIC "-//W3C//DTD SVG 1.1//EN" "http://www.w3.org/Graphics/SVG/1.1/DTD/svg11.dtd">
<svg version="1.1" id="Layer_1" xmlns="http://www.w3.org/2000/svg" xmlns:xlink="http://www.w3.org/1999/xlink" x="0px" y="0px"
	 width="539.979px" height="166.814px" viewBox="0 0 539.979 166.814" enable-background="new 0 0 539.979 166.814"
	 xml:space="preserve">
<g>
	<g>
		<path d="M119.852,41.961c1.75,1.464,2.627,3.721,2.627,6.768c0,3.049-0.895,5.28-2.682,6.696
			c-1.789,1.417-4.531,2.124-8.227,2.124h-4.464v7.38h-4.248V39.765h8.64C115.315,39.765,118.098,40.497,119.852,41.961z
			 M116.844,52.347c0.854-0.899,1.279-2.22,1.279-3.96s-0.541-2.971-1.621-3.689c-1.08-0.721-2.771-1.08-5.076-1.08h-4.319v10.08
			h4.932C114.391,53.697,115.993,53.246,116.844,52.347z"/>
		<path d="M147.379,39.765v3.996h-13.428v6.66h12.061v3.78h-12.061v6.731h13.859v3.996h-18.107V39.765H147.379z"/>
		<path d="M160.127,59.205l-2.52,5.724h-4.537l11.088-25.164h4.537l11.088,25.164h-4.537l-2.52-5.724H160.127z M170.999,55.281
			l-4.57-10.369l-4.572,10.369H170.999z"/>
		<path d="M196.089,61.076c1.465,0,2.725-0.245,3.781-0.737c1.055-0.491,2.16-1.278,3.312-2.358l2.734,2.809
			c-2.664,2.951-5.898,4.428-9.701,4.428c-3.805,0-6.96-1.225-9.468-3.672c-2.508-2.448-3.762-5.545-3.762-9.288
			c0-3.744,1.277-6.864,3.834-9.36c2.555-2.496,5.782-3.744,9.683-3.744s7.158,1.44,9.775,4.32l-2.701,2.952
			c-1.199-1.151-2.334-1.956-3.402-2.412c-1.066-0.456-2.32-0.685-3.762-0.685c-2.543,0-4.68,0.822-6.407,2.467
			c-1.729,1.645-2.592,3.744-2.592,6.3s0.857,4.692,2.574,6.408C191.705,60.219,193.738,61.076,196.089,61.076z"/>
		<path d="M213.046,64.929V39.765h4.248v10.908h12.492V39.765h4.248v25.164h-4.248V54.633h-12.492v10.296H213.046z"/>
	</g>
	<rect x="25.542" y="46.928" width="16" height="18"/>
	<rect x="45.792" y="25.498" width="16" height="39.43"/>
	<rect x="66.042" y="39.998" width="16" height="24.93"/>
</g>
<g>
	<path d="M64.348,116.15h8.496v17.208c-4.752,5.232-11.545,7.848-20.376,7.848c-7.44,0-13.669-2.448-18.685-7.344
		c-5.016-4.896-7.523-11.088-7.523-18.576s2.556-13.728,7.668-18.72s11.292-7.488,18.54-7.488c7.247,0,13.271,2.112,18.072,6.336
		l-4.536,6.48c-1.969-1.68-3.949-2.845-5.94-3.492c-1.992-0.648-4.309-0.973-6.948-0.973c-5.088,0-9.359,1.646-12.815,4.933
		c-3.456,3.288-5.185,7.608-5.185,12.96c0,5.353,1.68,9.647,5.04,12.888c3.359,3.24,7.428,4.86,12.204,4.86
		c4.775,0,8.771-1.032,11.988-3.096V116.15z"/>
	<path d="M122.955,90.302v7.992H96.1v13.32h24.119v7.56H96.1v13.464h27.72v7.992H87.604V90.302H122.955z"/>
	<path d="M176.019,90.302h8.496v50.328h-9.216l-28.512-36.72v36.72h-8.496V90.302h8.496l29.231,37.584V90.302z"/>
	<path d="M237.434,90.302v7.992h-26.855v13.32h24.119v7.56h-24.119v13.464h27.72v7.992h-36.216V90.302H237.434z"/>
	<path d="M292.945,106.646c0,8.305-3.625,13.535-10.872,15.695l13.176,18.288h-10.8l-12.024-16.92h-11.159v16.92h-8.496V90.302
		h18.72c7.679,0,13.176,1.296,16.488,3.889C291.289,96.782,292.945,100.935,292.945,106.646z M281.642,113.774
		c1.728-1.487,2.592-3.876,2.592-7.164c0-3.287-0.889-5.544-2.664-6.769c-1.776-1.224-4.944-1.836-9.504-1.836h-10.8v18h10.584
		C276.648,116.006,279.913,115.263,281.642,113.774z"/>
	<path d="M315.913,129.182l-5.04,11.448h-9.072l22.176-50.328h9.072l22.176,50.328h-9.072l-5.04-11.448H315.913z M337.657,121.334
		l-9.145-20.736l-9.144,20.736H337.657z"/>
	<path d="M380.857,98.078v42.552h-8.496V98.078h-15.264v-7.776h39.023v7.776H380.857z"/>
	<path d="M449.688,133.682c-5.088,4.969-11.376,7.452-18.863,7.452c-7.488,0-13.777-2.483-18.864-7.452
		c-5.088-4.968-7.632-11.159-7.632-18.575s2.544-13.608,7.632-18.576c5.087-4.968,11.376-7.452,18.864-7.452
		c7.487,0,13.775,2.484,18.863,7.452s7.633,11.16,7.633,18.576S454.775,128.714,449.688,133.682z M443.46,102.182
		c-3.433-3.551-7.645-5.327-12.636-5.327c-4.993,0-9.205,1.776-12.637,5.327c-3.432,3.554-5.147,7.861-5.147,12.925
		c0,5.064,1.716,9.372,5.147,12.924c3.432,3.553,7.644,5.328,12.637,5.328c4.991,0,9.203-1.775,12.636-5.328
		c3.432-3.552,5.148-7.859,5.148-12.924C448.608,110.043,446.892,105.735,443.46,102.182z"/>
	<path d="M511.824,106.646c0,8.305-3.625,13.535-10.872,15.695l13.176,18.288h-10.8l-12.024-16.92h-11.159v16.92h-8.496V90.302
		h18.72c7.679,0,13.176,1.296,16.488,3.889C510.168,96.782,511.824,100.935,511.824,106.646z M500.521,113.774
		c1.728-1.487,2.592-3.876,2.592-7.164c0-3.287-0.889-5.544-2.664-6.769c-1.776-1.224-4.944-1.836-9.504-1.836h-10.8v18h10.584
		C495.527,116.006,498.792,115.263,500.521,113.774z"/>
</g>
</svg>
